<svg xmlns="http://www.w3.org/2000/svg" width="257.736" height="32.389" viewBox="0 0 257.736 32.389">
  <g id="payments" transform="translate(-140 -2281.055)">
    <path id="Icon_metro-visa" data-name="Icon metro-visa" d="M42.9,27.89H40.08q.286-.756,1.348-3.655l.061-.184q.082-.2.2-.531t.184-.531l.245,1.123ZM13.413,26.563l-1.184-6.024a1.354,1.354,0,0,0-1.531-1.1H5.225l-.041.265q6.35,1.613,8.229,6.861Zm3.655-7.126L13.76,28.38l-.347-1.817a7.424,7.424,0,0,0-1.736-2.644A7.919,7.919,0,0,0,9,22.112l2.757,10.414h3.573l5.329-13.089H17.068Zm2.838,13.109H23.3L25.42,19.437H22.03ZM35.588,19.763a8.275,8.275,0,0,0-3.042-.551,6.618,6.618,0,0,0-4.1,1.2,3.8,3.8,0,0,0-1.613,3.124q-.02,2.083,2.961,3.553a5.647,5.647,0,0,1,1.368.837,1.087,1.087,0,0,1,.388.8,1.022,1.022,0,0,1-.613.939,2.948,2.948,0,0,1-1.409.327,7.378,7.378,0,0,1-3.185-.674l-.449-.225-.47,2.94a9.047,9.047,0,0,0,3.778.694,6.742,6.742,0,0,0,4.257-1.2A4.015,4.015,0,0,0,35.1,28.258q0-2.164-2.859-3.553a9.867,9.867,0,0,1-1.45-.858.983.983,0,0,1-.449-.776.954.954,0,0,1,.5-.786,2.572,2.572,0,0,1,1.44-.337,5.764,5.764,0,0,1,2.532.49l.306.163Zm8.678-.327H41.653a1.734,1.734,0,0,0-1.776,1.1L34.853,32.546h3.553l.715-1.96H43.45q.1.449.408,1.96H47Zm5.35-6.534V39.039A2.65,2.65,0,0,1,47,41.653H5.184a2.512,2.512,0,0,1-1.838-.776,2.512,2.512,0,0,1-.776-1.838V12.9a2.512,2.512,0,0,1,.776-1.838,2.512,2.512,0,0,1,1.838-.776H47A2.65,2.65,0,0,1,49.616,12.9Z" transform="translate(137.429 2271.006)" fill="#c3c3c3"/>
    <path id="Icon_metro-mastercard" data-name="Icon metro-mastercard" d="M16.376,26.852h-.267q-.967,0-.967.658,0,.453.412.453a.687.687,0,0,0,.576-.309A1.428,1.428,0,0,0,16.376,26.852Zm8.127-.741h1.276v-.062a.316.316,0,0,0,.01-.134q-.01-.051-.021-.144a.579.579,0,0,0-.041-.165.428.428,0,0,0-.093-.134.505.505,0,0,0-.154-.1.587.587,0,0,0-.237-.041q-.576,0-.741.782Zm11.11.741h-.247q-.988,0-.988.658,0,.453.412.453a.687.687,0,0,0,.576-.309A1.428,1.428,0,0,0,35.614,26.852Zm6.563-.535q0-.844-.617-.844a.73.73,0,0,0-.638.412,2.014,2.014,0,0,0-.247,1.049q0,.864.576.864a.767.767,0,0,0,.669-.412A1.993,1.993,0,0,0,42.177,26.317Zm-29.731-2.9h1.79l-.905,5.391H12.179l.658-4.136-1.461,4.136h-.8l-.082-4.115-.7,4.115H8.7l.905-5.391h1.667l.041,3.354Zm5.205,2.2q0,.123-.082.864-.329,2.078-.35,2.325h-.967l.021-.453a1.414,1.414,0,0,1-1.193.535.993.993,0,0,1-.772-.329,1.237,1.237,0,0,1-.3-.864,1.525,1.525,0,0,1,.535-1.245,2.294,2.294,0,0,1,1.5-.442,4.438,4.438,0,0,1,.473.021.578.578,0,0,1,.01-.113q.01-.051.021-.093a.284.284,0,0,0,.01-.062q0-.412-.741-.412a3.824,3.824,0,0,0-1.214.206q0-.082.144-.988a5.04,5.04,0,0,1,1.379-.226q1.523,0,1.523,1.276Zm3.21-1.193L20.7,25.432a6.268,6.268,0,0,0-.844-.062q-.556,0-.556.35a.313.313,0,0,0,.093.247,1.86,1.86,0,0,0,.442.226,1.292,1.292,0,0,1,.823,1.235q0,1.481-1.79,1.461a4.985,4.985,0,0,1-1.193-.123q0-.041.144-1.008a4.014,4.014,0,0,0,1.049.165q.658,0,.658-.391a.32.32,0,0,0-.093-.237,1.839,1.839,0,0,0-.442-.257,1.307,1.307,0,0,1-.885-1.214q0-1.481,1.728-1.481A5.371,5.371,0,0,1,20.862,24.424Zm1.811,0h.576l-.144,1.07h-.6q-.041.35-.134.833t-.144.792a3.65,3.65,0,0,0-.051.37q0,.329.391.329a1.353,1.353,0,0,0,.329-.041l-.165.967a2.6,2.6,0,0,1-.823.144q-.885,0-.926-.967a8.9,8.9,0,0,1,.165-1.152q.062-.412.514-3H22.8Zm4.177,1.5A4.611,4.611,0,0,1,26.705,27H24.421a.7.7,0,0,0,.206.679,1.181,1.181,0,0,0,.782.226,2.637,2.637,0,0,0,1.193-.288l-.185,1.111a4.555,4.555,0,0,1-1.173.165,1.728,1.728,0,0,1-1.955-1.955,2.951,2.951,0,0,1,.566-1.862,1.738,1.738,0,0,1,1.43-.73,1.522,1.522,0,0,1,1.142.432,1.579,1.579,0,0,1,.422,1.152Zm2.86-1.523a4.852,4.852,0,0,0-.453,1.276q-.453-.041-.638.494a20.826,20.826,0,0,0-.514,2.634H26.952l.062-.288q.453-2.675.6-4.094H28.66L28.6,25.1a2.456,2.456,0,0,1,.525-.607.68.68,0,0,1,.586-.093Zm3.848-.844-.185,1.173a2.349,2.349,0,0,0-1.029-.288,1.249,1.249,0,0,0-1.049.566,2.4,2.4,0,0,0-.412,1.451,1.516,1.516,0,0,0,.278.967.953.953,0,0,0,.792.35,2.326,2.326,0,0,0,.988-.267l-.206,1.214a3.794,3.794,0,0,1-1.029.165,1.849,1.849,0,0,1-1.471-.628,2.5,2.5,0,0,1-.545-1.7,3.661,3.661,0,0,1,.73-2.356,2.3,2.3,0,0,1,1.883-.916,3.689,3.689,0,0,1,1.255.267Zm3.333,2.058a5.343,5.343,0,0,1-.082.864q-.267,1.625-.35,2.325h-.946l.021-.453a1.437,1.437,0,0,1-1.214.535.962.962,0,0,1-.761-.329,1.265,1.265,0,0,1-.288-.864,1.539,1.539,0,0,1,.525-1.245,2.251,2.251,0,0,1,1.492-.442,4.1,4.1,0,0,1,.473.021.978.978,0,0,0,.041-.267q0-.412-.741-.412a3.824,3.824,0,0,0-1.214.206q0-.082.165-.988a5.04,5.04,0,0,1,1.379-.226q1.5,0,1.5,1.276Zm2.9-1.214a3.965,3.965,0,0,0-.432,1.276.592.592,0,0,0-.648.473,23.2,23.2,0,0,0-.525,2.654H37.034l.062-.288q.391-2.14.6-4.094h1.07a4.175,4.175,0,0,1-.082.679,2.768,2.768,0,0,1,.545-.607.644.644,0,0,1,.566-.093Zm2.9-.988h1.152l-.885,5.391h-1.09l.062-.391a1.476,1.476,0,0,1-1.07.473,1.221,1.221,0,0,1-1.018-.494,2.1,2.1,0,0,1-.381-1.317,3.2,3.2,0,0,1,.566-1.893,1.616,1.616,0,0,1,1.327-.8,1.336,1.336,0,0,1,1.09.6Zm2.284,2.675a11.193,11.193,0,0,0-17.941-8.93A11.8,11.8,0,0,1,30.552,23H29.524A11.078,11.078,0,0,0,26.273,17.8,11.078,11.078,0,0,0,23.022,23H21.993a11.8,11.8,0,0,1,3.518-5.843,11.2,11.2,0,0,0-16.45,3.313,11.2,11.2,0,0,0,4.074,15.308,11.237,11.237,0,0,0,12.376-.761,11.833,11.833,0,0,1-3.395-5.432h1.029a10.986,10.986,0,0,0,3.127,4.794A10.986,10.986,0,0,0,29.4,29.588h1.029a11.833,11.833,0,0,1-3.395,5.432,11.173,11.173,0,0,0,17.941-8.93Zm5-13.168V39.259a2.67,2.67,0,0,1-2.634,2.634H5.2a2.531,2.531,0,0,1-1.852-.782,2.531,2.531,0,0,1-.782-1.852V12.923a2.531,2.531,0,0,1,.782-1.852A2.531,2.531,0,0,1,5.2,10.289H47.342a2.67,2.67,0,0,1,2.634,2.634Z" transform="translate(207.024 2270.766)" fill="#c3c3c3"/>
    <path id="Icon_metro-amex" data-name="Icon metro-amex" d="M5.021,21.7H6.854l-.927-2.224ZM17.81,32.53,19.333,30.9l-1.442-1.627H14.535v1.009h2.924v1.133H14.535V32.53Zm3.254-1.606L23.1,33.189V28.72Zm5.931-.968q0-.68-.824-.68h-1.73V30.7H26.15q.844,0,.844-.741Zm5.951-.082q0-.6-.865-.6H30.392v1.256H32.06Q32.946,30.532,32.946,29.873Zm-5.725-9.6q0-.6-.865-.6H24.667v1.236h1.668q.885,0,.885-.638ZM36.673,21.7h1.833L37.6,19.474ZM16.965,18.506v5.581H15.606V19.721L13.67,24.086H12.5l-1.936-4.366v4.366H7.842l-.515-1.236H4.548l-.515,1.236H2.591L4.98,18.506H6.957L9.222,23.8V18.506h2.183l1.75,3.789,1.586-3.789h2.224Zm11.45,11.45a2.09,2.09,0,0,1-.113.721,1.68,1.68,0,0,1-.288.515,1.332,1.332,0,0,1-.463.34,3.833,3.833,0,0,1-.535.206,2.921,2.921,0,0,1-.649.093q-.4.021-.649.021t-.669-.01q-.422-.01-.607-.01V33.7H21.846L20.2,31.85,18.489,33.7H13.217V28.123h5.354l1.647,1.833,1.689-1.833H26.17q2.245,0,2.245,1.833Zm-5.993-7.022v1.153H17.954V18.506h4.469V19.68h-3.13v1.009H22.34v1.133H19.292v1.112ZM50.017,34.445v4.716a2.69,2.69,0,0,1-.793,1.946,2.588,2.588,0,0,1-1.925.813H5.289a2.588,2.588,0,0,1-1.925-.813,2.69,2.69,0,0,1-.793-1.946V25.2H4.856l.515-1.256H6.5L7.019,25.2h4.489v-.947l.391.947h2.327l.412-.968V25.2H25.779V23.16l.206-.021q.206,0,.206.288V25.2h5.746v-.474a4.065,4.065,0,0,0,1.133.371,7.038,7.038,0,0,0,1.081.134q.422.01,1.3-.01t1.061-.021l.515-1.256h1.153l.515,1.256h4.675V24l.7,1.194h3.748V17.414H44.107v.906l-.515-.906h-3.81v.906l-.474-.906H34.181a4.681,4.681,0,0,0-2.245.453v-.453H28.394v.453a2.163,2.163,0,0,0-1.5-.453H13.959l-.885,2-.885-2H8.11v.906l-.453-.906H4.177L2.571,21.1V13.049A2.69,2.69,0,0,1,3.364,11.1a2.588,2.588,0,0,1,1.925-.813H47.3a2.588,2.588,0,0,1,1.925.813,2.69,2.69,0,0,1,.793,1.946V27.011H47.546a2.763,2.763,0,0,0-1.668.453v-.453H42.233a2.292,2.292,0,0,0-1.606.453v-.453H34.119v.453a3.059,3.059,0,0,0-1.792-.453h-4.3v.453a2.794,2.794,0,0,0-1.874-.453H21.331l-1.112,1.194-1.03-1.194H12v7.784h7.063L20.2,33.58l1.071,1.215h4.345V32.962h.432a4.99,4.99,0,0,0,1.853-.268v2.1h3.583V32.756h.165A.189.189,0,0,1,31.9,33v1.792H42.789A2.9,2.9,0,0,0,44.6,34.3v.494h3.46a4.536,4.536,0,0,0,1.956-.35Zm-15.61-4.819a1.691,1.691,0,0,1-.247.885,1.422,1.422,0,0,1-.7.6,1.206,1.206,0,0,1,.7.535,2.037,2.037,0,0,1,.185.947V33.7H33.007v-.927a1.193,1.193,0,0,0-.247-.9,1.5,1.5,0,0,0-.947-.216H30.392V33.7H29.053V28.123h3.171a3.465,3.465,0,0,1,1.586.309,1.217,1.217,0,0,1,.6,1.194Zm-5.7-9.617a1.676,1.676,0,0,1-.257.906,1.492,1.492,0,0,1-.69.6,1.182,1.182,0,0,1,.71.525,2.128,2.128,0,0,1,.175.958v1.091H27.3q0-.185.01-.546t0-.515a2.537,2.537,0,0,0-.062-.381.582.582,0,0,0-.175-.329,1.035,1.035,0,0,0-.36-.175,2.133,2.133,0,0,0-.607-.072H24.667v2.018H23.349V18.506l3.151.021a3.624,3.624,0,0,1,1.606.3,1.194,1.194,0,0,1,.6,1.184ZM39.6,32.55V33.7H35.149V28.123H39.6v1.153h-3.11v1.009h3.048v1.133H36.488V32.53ZM30.824,18.506v5.581H29.465V18.506ZM45.1,31.932q0,1.771-2.1,1.771H40.4V32.509h2.595q.7,0,.7-.515a.425.425,0,0,0-.35-.432,3.064,3.064,0,0,0-.855-.1,7.346,7.346,0,0,1-1.019-.072,1.385,1.385,0,0,1-.865-.463,1.645,1.645,0,0,1-.35-1.133,1.5,1.5,0,0,1,.535-1.236,2.094,2.094,0,0,1,1.359-.432h2.677V29.3H42.377q-.741,0-.741.515a.413.413,0,0,0,.36.422,3.246,3.246,0,0,0,.865.082,7.1,7.1,0,0,1,1.009.051,1.393,1.393,0,0,1,.865.443,1.575,1.575,0,0,1,.36,1.122Zm4.922-1.03v2.08a2.046,2.046,0,0,1-1.812.721H45.631V32.509h2.574q.68,0,.68-.515a.409.409,0,0,0-.257-.391,1.382,1.382,0,0,0-.638-.113,5.8,5.8,0,0,1-.824-.041,4.857,4.857,0,0,1-.824-.165,1.169,1.169,0,0,1-.638-.494,1.753,1.753,0,0,1-.257-1,1.484,1.484,0,0,1,.546-1.236,2.136,2.136,0,0,1,1.369-.432h2.657V29.3h-2.43q-.741,0-.741.515,0,.412.6.453t1.411.1a1.5,1.5,0,0,1,1.164.535Zm-3.4-12.377v5.56H44.725l-2.512-4.18v4.18H39.494l-.535-1.236H36.2l-.515,1.236H34.14q-2.657,0-2.657-2.739,0-2.842,2.739-2.842h1.3v1.215q-.144,0-.577-.021t-.587-.01q-.154.01-.474.041a.841.841,0,0,0-.443.134q-.124.1-.3.278a.913.913,0,0,0-.237.474,3.431,3.431,0,0,0-.062.69,2.134,2.134,0,0,0,.278,1.194,1.143,1.143,0,0,0,1.019.412h.6l1.895-4.386h2L40.874,23.8V18.526h2.039L45.26,22.4V18.526h1.359Z" transform="translate(276.861 2270.961)" fill="#c3c3c3"/>
    <path id="Icon_metro-cc-paypal" data-name="Icon metro-cc-paypal" d="M9.32,25.359H9.005q-.4,0-.4-.377a6.316,6.316,0,0,1,.4-1.782.633.633,0,0,1,.314-.409,1.467,1.467,0,0,1,.587-.094q1.614,0,1.614,1.027a1.348,1.348,0,0,1-.639,1.247A2.959,2.959,0,0,1,9.32,25.359Zm7.168,3.375q-.985,0-.985-.608,0-1.3,2.578-1.3l.063.063Q18.039,28.734,16.488,28.734ZM32.711,25.4H32.4A.352.352,0,0,1,32,25a6.316,6.316,0,0,1,.4-1.782.6.6,0,0,1,.3-.4,1.619,1.619,0,0,1,.6-.084q1.614,0,1.614,1.027a1.348,1.348,0,0,1-.639,1.247,2.959,2.959,0,0,1-1.562.388Zm7.168,3.354q-.985,0-.985-.629,0-1.3,2.578-1.3l.063.063q-.1,1.865-1.656,1.865ZM10.389,21.062H7.706a.568.568,0,0,0-.3.084.511.511,0,0,0-.178.157l-.147.262q-.063.147-.943,3.982t-.88,4.024a.361.361,0,0,0,.115.262.385.385,0,0,0,.283.115h1.3q.524,0,.681-.723l.314-1.446.681-.723a10.078,10.078,0,0,0,1.834-.157,8.059,8.059,0,0,0,1.687-.514,2.937,2.937,0,0,0,1.331-1.1,3.135,3.135,0,0,0,.493-1.771,2.51,2.51,0,0,0-.3-1.279,1.8,1.8,0,0,0-.859-.765,4.447,4.447,0,0,0-1.121-.325,8.952,8.952,0,0,0-1.3-.084Zm7.252,2.012a9.419,9.419,0,0,0-1.551.126,1.526,1.526,0,0,0-.178.021q-.136.021-.189.031l-.157.031-.157.042-.136.063-.136.084-.1.1-.094.147-.084.189a3.5,3.5,0,0,0-.189.817q0,.21.189.21a2.086,2.086,0,0,0,.451-.1q.346-.1.409-.126a4.712,4.712,0,0,1,1.216-.168q1.551,0,1.551.755a.276.276,0,0,1-.21.293,2.648,2.648,0,0,1-.377.063q-.21.021-.451.031a3.266,3.266,0,0,0-.367.031,11.872,11.872,0,0,0-1.352.21,6.294,6.294,0,0,0-1.184.409,2.077,2.077,0,0,0-.954.817,2.478,2.478,0,0,0-.325,1.31,1.53,1.53,0,0,0,.545,1.247,2.035,2.035,0,0,0,1.341.451,3.279,3.279,0,0,0,.954-.136,3.543,3.543,0,0,0,.692-.272q.241-.136.807-.493a.79.79,0,0,0-.063.314.385.385,0,0,0,.115.283.361.361,0,0,0,.262.115h1.174a.644.644,0,0,1,.147-.073,1.218,1.218,0,0,0,.157-.073l.1-.073a.322.322,0,0,0,.1-.115.682.682,0,0,0,.052-.168L20.6,25.4a2.141,2.141,0,0,0,.084-.629q0-1.7-3.039-1.7Zm11.067.1H27.157a1.014,1.014,0,0,0-.817.482q-.1.147-.618,1.069t-.975,1.708a3.353,3.353,0,0,1-.545.807l-.1-.084a12.027,12.027,0,0,0-.566-3.479.456.456,0,0,0-.073-.178.766.766,0,0,0-.126-.136,1.442,1.442,0,0,0-.136-.1.478.478,0,0,0-.178-.063l-.178-.031q-.063-.01-.2-.021t-.189-.01h-.388q-.8,0-.8.44l.021.1q.1,1.111.524,3.165t.524,3a4.447,4.447,0,0,1,.042.5,2.79,2.79,0,0,1-.639,1.289,2.879,2.879,0,0,0-.639,1.226q0,.272.838.272,1.279,0,1.593-.524l5.135-8.7a1.733,1.733,0,0,0,.21-.545q0-.189-.168-.189ZM33.78,21.1h-2.7q-.377,0-.608.482-.126.272-.975,4.014t-.849,3.993q0,.419.9.419h.534l.2-.021.178-.042.178-.063.136-.094.115-.126.063-.178.44-1.907a.607.607,0,0,1,.22-.356.625.625,0,0,1,.409-.147,10.78,10.78,0,0,0,1.834-.147,7.306,7.306,0,0,0,1.687-.514,3.027,3.027,0,0,0,1.331-1.1,3.084,3.084,0,0,0,.493-1.761,2.51,2.51,0,0,0-.3-1.279,1.8,1.8,0,0,0-.859-.765,4.447,4.447,0,0,0-1.121-.325,8.951,8.951,0,0,0-1.3-.084Zm7.252,1.97a13.443,13.443,0,0,0-1.551.126,2.026,2.026,0,0,0-1.006.335,1.242,1.242,0,0,0-.231.4,2.725,2.725,0,0,0-.168.817q0,.21.168.21.021,0,.859-.252a4.712,4.712,0,0,1,1.216-.168q1.551,0,1.551.755a.258.258,0,0,1-.21.293q-.084.021-1.195.147a11.872,11.872,0,0,0-1.352.21,6.294,6.294,0,0,0-1.184.409,2.077,2.077,0,0,0-.954.817,2.478,2.478,0,0,0-.325,1.31,1.507,1.507,0,0,0,.545,1.226,2.035,2.035,0,0,0,1.341.451,3.419,3.419,0,0,0,.943-.126,3.638,3.638,0,0,0,.713-.272q.273-.147.8-.5-.063.314-.063.335a.354.354,0,0,0,.042.178.282.282,0,0,0,.136.115l.168.073a.719.719,0,0,0,.22.042q.147.01.2.01h.367q.88,0,1.006-.524l.943-4.066a3.306,3.306,0,0,0,.063-.65q0-1.7-3.039-1.7Zm6.749-1.907H46.628q-.524,0-.692.838-.21.922-.765,3.5t-.891,3.982v.1a.342.342,0,0,0,.335.377h1.216a.625.625,0,0,0,.388-.136.564.564,0,0,0,.22-.346l1.74-7.839h-.021l.021-.1a.361.361,0,0,0-.115-.262A.385.385,0,0,0,47.781,21.167Zm3.081-8.2V39.8a2.72,2.72,0,0,1-2.683,2.683H5.253a2.578,2.578,0,0,1-1.886-.8,2.578,2.578,0,0,1-.8-1.886V12.972a2.578,2.578,0,0,1,.8-1.886,2.578,2.578,0,0,1,1.886-.8H48.179a2.72,2.72,0,0,1,2.683,2.683Z" transform="translate(346.873 2270.961)" fill="#c3c3c3"/>
  </g>
</svg>
