<svg xmlns="http://www.w3.org/2000/svg" xmlns:xlink="http://www.w3.org/1999/xlink" width="278" height="33.878" viewBox="0 0 278 33.878">
  <defs>
    <clipPath id="clip-path">
      <rect id="Rectangle_123" data-name="Rectangle 123" width="278" height="33.878" fill="none"/>
    </clipPath>
  </defs>
  <g id="Group_126" data-name="Group 126" transform="translate(0 0)">
    <path id="Path_328" data-name="Path 328" d="M54.958,2.895V31.148l3.123,2.73,3.1-2.73,0-28.277L58.082.165Z" transform="translate(4.478)" fill="#fff"/>
    <path id="Path_329" data-name="Path 329" d="M48.526,7.892l-3.1-2.507L42.306,7.914v2.458l3.123,2.507,3.121-2.507Z" transform="translate(0 0.563)" fill="#fff"/>
    <path id="Path_330" data-name="Path 330" d="M48.526,20.851l-3.1-2.507-3.123,2.529v2.458l3.123,2.507,3.121-2.507Z" transform="translate(0 1.916)" fill="#fff"/>
    <path id="Path_331" data-name="Path 331" d="M73.88,6.741l5.433-.04,5.433.04V26.982l-3.716-.025v-.024l-1.717.012L77.6,26.934v.024l-3.715.025ZM79.313.11l-1.3,0v.01L72.379.136,67.71,6.245l.034,22.127,5.872,5.46,5.7-.025,5.7.025,5.872-5.46.034-22.127L86.246.136,80.61.116V.106Z" transform="translate(5.917)" fill="#fff"/>
    <path id="Path_332" data-name="Path 332" d="M0,2.895V31.148l3.122,2.73,3.1-2.73,0-28.277L3.123.165Z" fill="#fff"/>
    <path id="Path_333" data-name="Path 333" d="M18.922,6.741l5.433-.04,5.433.04V26.982l-3.715-.025v-.024l-1.718.012-1.718-.012v.024l-3.715.025ZM24.355.11l-1.3,0v.01L17.421.136,12.752,6.245l.034,22.127,5.873,5.46,5.7-.025,5.7.025,5.873-5.46.034-22.127L31.289.136,25.652.116V.106Z" fill="#fff"/>
    <g id="Group_125" data-name="Group 125" transform="translate(0 0)">
      <g id="Group_124" data-name="Group 124" clip-path="url(#clip-path)">
        <path id="Path_334" data-name="Path 334" d="M270.294.008l-7.982.006-7.454,12.567L247.417.027l-7.983.008,2.153,3.606a10.477,10.477,0,0,0-1.013-.951Q237.3.042,231.815.045l-9.944.009L222,23.3h-.01V30.98L208.749.076,206,.078,194.5,27.5l-3.74-5.972a9.386,9.386,0,0,0,3.9-4.278,13.524,13.524,0,0,0,1.212-5.829c-.04-.792-.078-1.341-.117-1.646a10.217,10.217,0,0,0-3.874-7.106A14.192,14.192,0,0,0,182.94,0L173,.009l.161,27.4-17.523.013-.021-7.315,11.2-.006-.171-6.315-11.054.012-.043-7.5,15.7-.014L171.179,0H148.794l.076,13.793h-1.926L146.951,0H140l.123,13.78-12.3,0L127.759,0h-6.707L96.99.033l-.067,6.537,8.76.1-.2,27.166,6.689.021.2-27.111,8.72.1.155,27.006h6.689l-.052-13.757,12.3,0,.052,13.746h6.7l.006-13.765H148.9l.076,13.78h24.214l6.465.016-.041-10.817,4.281,0,7.09,10.821,8.581-.047,2.653-6.674,10.881-.01,2.561,6.582,13.088.005-.046-10.68,4.415,0a11.794,11.794,0,0,0,7.136-1.972,9.677,9.677,0,0,0,3.621-4.941,14.3,14.3,0,0,0,.545-6.173,12.85,12.85,0,0,0-.581-2.535l7.642,12.8.219,13.455,6.466-.006-.22-13.454ZM189.169,11.659a5.545,5.545,0,0,1-1.181,3.407,4.47,4.47,0,0,1-3.817,1.58l-4.592,0L179.516,6.5l4.638,0a4.522,4.522,0,0,1,3.641,1.3,5.641,5.641,0,0,1,1.311,2.993,5.642,5.642,0,0,1,.064.869m15.259,9.909,3.3-8.187,3.206,8.181Zm33.066-8.177a4.671,4.671,0,0,1-1.569,2.265,4.8,4.8,0,0,1-3.115.939l-4.147,0L228.6,6.449l4.192,0a4.37,4.37,0,0,1,3.655,1.414,6.122,6.122,0,0,1,1.319,3.063,5.833,5.833,0,0,1-.272,2.469" transform="translate(7.706 0)" fill="#fff"/>
      </g>
    </g>
  </g>
</svg>
