<svg xmlns="http://www.w3.org/2000/svg" xmlns:xlink="http://www.w3.org/1999/xlink" width="178.319" height="21.731" viewBox="0 0 178.319 21.731">
  <defs>
    <clipPath id="clip-path">
      <rect id="Rectangle_124" data-name="Rectangle 124" width="178.319" height="21.731" transform="translate(0 -0.001)" fill="#dedede"/>
    </clipPath>
  </defs>
  <g id="Group_129" data-name="Group 129" transform="translate(0 0)">
    <path id="Path_335" data-name="Path 335" d="M38.055,1.865V19.98l2.163,1.751,2.146-1.751,0-18.13L40.218.115Z" fill="#dedede"/>
    <path id="Path_336" data-name="Path 336" d="M33.6,5.465,31.457,3.729,29.294,5.48v1.7l2.163,1.736,2.161-1.736Z" fill="#dedede"/>
    <path id="Path_337" data-name="Path 337" d="M33.6,14.438,31.457,12.7l-2.163,1.751v1.7l2.163,1.736,2.161-1.736Z" fill="#dedede"/>
    <path id="Path_338" data-name="Path 338" d="M51.157,4.328,54.919,4.3l3.762.026V17.307l-2.572-.017v-.014l-1.19.007-1.19-.007v.014l-2.572.017ZM54.919.076l-.9,0V.08l-3.9.013L46.885,4.01,46.909,18.2l4.065,3.5,3.945-.016,3.944.016,4.066-3.5L62.952,4.01,59.72.093,55.817.08V.073Z" fill="#dedede"/>
    <path id="Path_339" data-name="Path 339" d="M0,1.865V19.98l2.163,1.751L4.309,19.98l0-18.13L2.163.115Z" fill="#dedede"/>
    <path id="Path_340" data-name="Path 340" d="M13.1,4.328,16.864,4.3l3.762.026V17.307l-2.572-.017v-.014l-1.19.007-1.19-.007v.014l-2.572.017ZM16.864.076l-.9,0V.08l-3.9.013L8.83,4.01,8.854,18.2l4.065,3.5,3.945-.016,3.944.016,4.066-3.5L24.9,4.01,21.665.093,17.762.08V.073Z" fill="#dedede"/>
    <g id="Group_128" data-name="Group 128">
      <g id="Group_127" data-name="Group 127" clip-path="url(#clip-path)">
        <path id="Path_341" data-name="Path 341" d="M178.319,0l-5.12,0-4.781,8.06L163.645.018l-5.121,0L159.9,2.335a6.717,6.717,0,0,0-.649-.61,8.661,8.661,0,0,0-5.619-1.7l-6.379.006.082,14.909h-.006v4.928L138.842.049h-1.763L129.7,17.642l-2.4-3.83a6.026,6.026,0,0,0,2.5-2.745,8.688,8.688,0,0,0,.777-3.739c-.025-.509-.05-.86-.074-1.056a6.554,6.554,0,0,0-2.486-4.558A9.1,9.1,0,0,0,122.288,0l-6.379,0,.1,17.573-11.24.008-.013-4.692,7.181,0-.109-4.05-7.091.007-.028-4.809,10.069-.009L114.743,0H100.385l.049,8.847H99.2L99.2,0H94.746l.079,8.839-7.89,0L86.892,0h-4.3L67.156.021l-.043,4.194,5.619.064L72.6,21.7l4.291.014.129-17.39,5.594.064.1,17.323h4.29l-.033-8.825,7.889,0L94.9,21.7h4.3l0-8.829h1.26l.048,8.84h15.532l4.147.01-.026-6.938,2.746,0,4.548,6.941,5.5-.031,1.7-4.28,6.979-.006,1.643,4.221,8.395,0-.029-6.85,2.831,0a7.558,7.558,0,0,0,4.577-1.265,6.2,6.2,0,0,0,2.322-3.169,9.166,9.166,0,0,0,.35-3.959,8.17,8.17,0,0,0-.372-1.626l4.9,8.209.141,8.63,4.148,0-.141-8.63ZM126.282,7.478a3.548,3.548,0,0,1-.757,2.185,2.866,2.866,0,0,1-2.448,1.014l-2.946,0-.04-6.51,2.975,0A2.9,2.9,0,0,1,125.4,5a3.617,3.617,0,0,1,.841,1.92,3.469,3.469,0,0,1,.04.557m9.788,6.356,2.119-5.251,2.057,5.247Zm21.21-5.245a3,3,0,0,1-1.006,1.452,3.072,3.072,0,0,1-2,.6l-2.66,0-.04-6.51,2.689,0a2.8,2.8,0,0,1,2.344.907,3.921,3.921,0,0,1,.846,1.964,3.73,3.73,0,0,1-.174,1.584" fill="#dedede"/>
      </g>
    </g>
  </g>
</svg>
